<svg viewBox="0 0 64 64" fill="none" stroke="var(--accent)" stroke-linecap="round">
  <g data-anim="true">
    <rect x="5" y="5" width="54" height="54" rx="3" stroke-width="2.5"/>
    <line x1="23" y1="5" x2="23" y2="59" stroke-width="2.5"/>
    <line x1="41" y1="5" x2="41" y2="59" stroke-width="2.5"/>
    <line x1="5" y1="23" x2="59" y2="23" stroke-width="2.5"/>
    <line x1="5" y1="41" x2="59" y2="41" stroke-width="2.5"/>
    <line x1="11" y1="5" x2="11" y2="59" stroke-width="1" opacity=".35"/>
    <line x1="17" y1="5" x2="17" y2="59" stroke-width="1" opacity=".35"/>
    <line x1="29" y1="5" x2="29" y2="59" stroke-width="1" opacity=".35"/>
    <line x1="35" y1="5" x2="35" y2="59" stroke-width="1" opacity=".35"/>
    <line x1="47" y1="5" x2="47" y2="59" stroke-width="1" opacity=".35"/>
    <line x1="53" y1="5" x2="53" y2="59" stroke-width="1" opacity=".35"/>
    <line x1="5" y1="11" x2="59" y2="11" stroke-width="1" opacity=".35"/>
    <line x1="5" y1="17" x2="59" y2="17" stroke-width="1" opacity=".35"/>
    <line x1="5" y1="29" x2="59" y2="29" stroke-width="1" opacity=".35"/>
    <line x1="5" y1="35" x2="59" y2="35" stroke-width="1" opacity=".35"/>
    <line x1="5" y1="47" x2="59" y2="47" stroke-width="1" opacity=".35"/>
    <line x1="5" y1="53" x2="59" y2="53" stroke-width="1" opacity=".35"/>
    <text x="7" y="21" font-family="var(--font-mono)" font-size="6" fill="var(--accent)" stroke="none">5</text>
    <text x="31" y="39" font-family="var(--font-mono)" font-size="6" fill="var(--accent)" stroke="none">3</text>
    <text x="49" y="57" font-family="var(--font-mono)" font-size="6" fill="var(--accent)" stroke="none">7</text>
    <rect x="29" y="29" width="6" height="6" fill="color-mix(in oklab, var(--accent) 20%, transparent)" stroke="none"/>
  </g>
</svg>
